<?xml version="1.0" encoding="utf-8"?>
<!-- Generator: Adobe Illustrator 16.2.0, SVG Export Plug-In . SVG Version: 6.00 Build 0)  -->
<!DOCTYPE svg PUBLIC "-//W3C//DTD SVG 1.1//EN" "http://www.w3.org/Graphics/SVG/1.1/DTD/svg11.dtd">
<svg version="1.1" id="Layer_1" xmlns="http://www.w3.org/2000/svg" xmlns:xlink="http://www.w3.org/1999/xlink" x="0px" y="0px"
	 width="28px" height="28px" viewBox="0 0 28 28" enable-background="new 0 0 28 28" xml:space="preserve">
<path fill="#FFFFFF" d="M14.016,0c-2.453,0-4.873,0.648-6.999,1.875c-3.238,1.87-5.554,4.889-6.521,8.5
	c-0.968,3.612-0.471,7.383,1.398,10.622c1.227,2.125,2.999,3.896,5.124,5.123C9.146,27.351,11.56,28,14.001,28
	c0.001,0,0.001,0,0.001,0c4.992,0,9.642-2.684,12.134-7.002c1.228-2.125,1.877-4.545,1.877-6.999C28.013,6.28,21.733,0,14.016,0z
	 M10.013,20.313V7.684l10.938,6.315L10.013,20.313z"/>
</svg>
